<?xml version="1.0" encoding="UTF-8"?>
<svg width="64" height="64" viewBox="0 0 144 144" xmlns="http://www.w3.org/2000/svg" role="img" aria-label="WaterWorks Disc Golf">
  <rect width="144" height="144" rx="24" fill="#102319"/>
  <g transform="translate(0 9.058365)">
    <path style="fill:#ffffff;fill-opacity:1;stroke:none" d="m 90.610562,125.05002 c -0.625433,-0.45305 -2.178815,-2.38065 -2.59688,-3.22246 -0.612638,-1.23361 -2.59728,-6.95134 -9.28611,-26.75317 -2.651882,-7.850717 -4.96601,-14.554354 -5.142508,-14.896968 -0.176496,-0.342614 -0.578184,-0.921263 -0.892638,-1.285888 -0.521581,-0.604798 -0.636045,-0.662956 -1.304819,-0.662956 -1.015043,0 -1.372148,0.308404 -2.059475,1.778598 -0.62816,1.343628 -4.662262,11.75771 -14.296559,36.906724 -0.903835,2.35933 -1.944431,4.89012 -2.312434,5.62397 -0.667499,1.33107 -1.556851,2.34336 -2.252856,2.56426 -0.503253,0.15973 -2.117423,-0.68886 -3.022706,-1.58908 -1.246235,-1.23926 -1.433099,-1.7743 -2.684243,-7.6857 -1.407509,-6.65018 -5.904087,-28.287082 -6.144262,-29.565329 -0.350954,-1.867821 -0.673016,-3.127084 -0.887661,-3.470759 -0.298442,-0.477851 -1.130441,-0.477763 -1.579428,1.64e-4 -0.209087,0.222557 -1.270452,3.149933 -2.898516,7.994444 -3.656808,10.8813 -5.367263,15.89138 -5.887254,17.24433 -0.495091,1.28815 -1.112112,2.01191 -2.047957,2.40224 -2.162361,0.90189 -4.012115,-0.57895 -8.855788,-7.0896 C 7.7836659,91.682548 2.8617973,79.555029 1.1381436,65.593454 0.83076908,63.103722 0.88323506,55.790239 1.2293459,52.880336 2.0992836,45.566393 3.8687528,37.803235 5.9759225,32.055779 10.863211,18.725345 18.508375,8.110239 27.59135,2.0433329 c 0.847635,-0.5661717 1.625582,-1.0294031 1.728772,-1.0294031 0.261022,0 0.568671,0.4037189 5.408583,7.097508 7.342902,10.1555222 8.090329,11.2898612 8.090329,12.2783542 0,1.286714 -1.33413,1.792666 -4.228455,1.60359 l -1.688732,-0.110318 -1.682086,1.36641 c -6.513168,5.290855 -11.353459,12.450398 -13.530344,20.013486 -1.097736,3.813836 -1.367027,5.630595 -1.471781,9.929354 -0.05227,2.14485 -0.05056,5.689706 0.0038,7.877453 0.08376,3.371437 0.161839,4.310589 0.512267,6.161574 0.894458,4.724572 2.173512,9.647992 3.24858,12.504656 0.84477,2.244717 1.307794,2.185548 2.117962,-0.270648 1.546561,-4.688729 8.445968,-24.879736 9.190889,-26.896991 1.490107,-4.035232 2.333326,-5.655979 3.166867,-6.08702 0.386852,-0.200049 0.446357,-0.1851 0.819282,0.205841 0.22117,0.231857 0.476075,0.61728 0.566452,0.856498 0.09038,0.239218 0.553389,2.485461 1.028917,4.991653 0.475525,2.506194 1.245282,6.487081 1.710571,8.846415 0.465285,2.359337 1.450321,7.413387 2.188966,11.231224 2.368765,12.243466 2.818069,13.942848 3.91437,14.805199 0.24065,0.189296 0.642636,0.325753 0.959631,0.325753 1.099793,0 1.917901,-1.353667 4.478041,-7.409487 3.236447,-7.655589 7.009836,-16.420005 7.439086,-17.278699 0.247396,-0.494906 0.638656,-1.653128 0.869468,-2.573822 0.35719,-1.424808 0.41918,-1.999065 0.416454,-3.857837 -0.0045,-3.062636 0.06626,-2.860209 -4.93441,-14.11702 -1.543568,-3.474662 -3.189179,-7.068704 -3.656917,-7.986763 -0.850326,-1.668994 -0.850532,-1.669235 -1.702263,-1.987907 -1.078281,-0.403437 -2.401605,-1.064363 -2.756088,-1.376508 -0.562814,-0.495594 -0.220604,-1.828541 0.772491,-3.008942 0.5686,-0.675847 3.315263,-1.986617 9.768165,-4.661595 4.731329,-1.961318 4.981305,-2.046477 5.332243,-1.816533 0.837377,0.54867 1.1625,1.307738 3.278912,7.655267 2.121538,6.362901 2.411201,7.139032 2.740298,7.342423 0.490913,0.303403 0.83793,-0.49184 3.577518,-8.198472 2.029677,-5.709604 2.178241,-6.075587 2.570618,-6.332684 0.30694,-0.201115 0.46129,-0.158381 1.727822,0.478388 0.764926,0.384575 3.005261,1.359693 4.978524,2.166928 6.812362,2.786843 7.887811,3.349032 9.201335,4.809987 1.331979,1.481479 0.904769,2.169753 -1.727105,2.782546 -0.764857,0.178086 -1.521886,0.362405 -1.682287,0.409596 -0.184756,0.05436 -0.592714,0.722908 -1.113173,1.824247 -0.451848,0.956146 -1.915351,4.066016 -3.252235,6.910821 -1.336881,2.844806 -3.267045,6.916124 -4.289253,9.047374 -1.022209,2.131248 -1.936945,4.246978 -2.032746,4.70162 -0.213862,1.01492 -0.225216,2.839426 -0.02426,3.89904 0.08246,0.434784 1.794015,4.919305 3.803467,9.965602 2.00945,5.046295 4.441421,11.157927 5.40438,13.581401 2.230651,5.613882 2.631521,6.194896 4.016808,5.821876 1.243105,-0.334732 1.934139,-1.590675 2.623725,-4.768572 0.204788,-0.943734 1.712185,-8.208933 3.349776,-16.144883 3.895296,-18.877047 4.033486,-19.4438 4.956886,-20.328474 l 0.43773,-0.419362 0.41163,0.429652 c 0.89316,0.932264 1.812,3.314498 7.26521,18.836287 4.91129,13.979284 5.33814,15.11889 5.71747,15.264456 0.29706,0.113993 0.45256,-0.116544 0.98439,-1.459413 1.21528,-3.068574 2.94608,-8.944448 3.60695,-12.245149 1.11479,-5.567876 1.36978,-14.55992 0.54832,-19.336734 -1.42743,-8.300527 -5.32048,-16.013986 -11.054,-21.901764 -1.5437,-1.58523 -4.8408,-4.462124 -5.32825,-4.649176 -0.10289,-0.03948 -0.67006,0.171446 -1.26038,0.468729 -1.17794,0.593197 -1.53127,0.685638 -2.00537,0.524645 -0.38244,-0.129869 -1.11188,-1.218234 -1.3511,-2.015906 -0.21176,-0.706142 -0.74763,0.02088 6.00373,-8.145294 5.35775,-6.4805268 7.50033,-8.8597395 8.19737,-9.1027288 0.64399,-0.2244974 1.28662,0.056743 3.57094,1.5627934 4.10222,2.7045973 7.26077,5.8409664 10.41215,10.3390554 5.6183,8.019201 9.30384,17.372451 11.6785,29.637947 1.4477,7.477609 1.48286,18.529358 0.0856,26.908135 -0.94181,5.64769 -3.35844,12.664186 -6.36652,18.484718 -3.28058,6.347817 -6.60904,10.91664 -11.47772,15.75491 -1.554,1.54429 -3.11409,3.19986 -3.46686,3.67904 -0.82547,1.12124 -1.47958,1.66483 -2.15603,1.79173 -1.20131,0.22537 -2.21143,-0.28884 -3.14396,-1.60046 -0.642,-0.90298 -1.48266,-3.4434 -3.73265,-11.279799 -4.1594,-14.486599 -4.18934,-14.580295 -4.88059,-15.271551 -0.44184,-0.441836 -1.30477,-0.437256 -1.72064,0.0091 -0.60236,0.646549 -1.0596,2.390161 -3.67616,14.018247 -5.495053,24.420243 -5.562546,24.688323 -6.631939,26.342883 -0.835922,1.29333 -1.254091,1.57544 -2.335289,1.57544 -0.731967,0 -1.000998,-0.0793 -1.503423,-0.44328 z" id="path22" />
  </g>
</svg>
