<?xml version="1.0" encoding="UTF-8" standalone="no"?>
<!-- Created with Inkscape (http://www.inkscape.org/) -->

<svg
   width="143.4669mm"
   height="125.88328mm"
   viewBox="0 0 143.4669 125.88328"
   version="1.1"
   id="svg1"
   xmlns="http://www.w3.org/2000/svg"
   xmlns:svg="http://www.w3.org/2000/svg">
  <defs
     id="defs1" />
  <g
     id="layer1"
     transform="translate(-1.139955,-1.3726278)">
    <path
       d="m 90.786257,126.81663 c -1.57863,-1.32833 -2.62789,-3.35824 -4.37914,-8.47191 -0.94094,-2.74754 -4.02725,-11.86031 -6.85847,-20.2506 -2.83122,-8.3903 -5.394257,-15.73842 -5.695636,-16.32917 -1.095364,-2.1471 -2.162826,-1.79709 -3.164184,1.03749 -0.280286,0.79343 -1.519189,4.06197 -2.753116,7.26343 -1.23393,3.20146 -3.746831,9.74989 -5.58423,14.55208 -1.837399,4.80219 -3.469775,9.02891 -3.627498,9.39271 -0.157726,0.3638 -1.110901,2.84527 -2.118167,5.51439 -2.173748,5.7601 -2.350677,6.12357 -3.418168,7.0218 -1.669534,1.40482 -3.985204,0.68895 -5.993405,-1.85282 -0.859163,-1.08744 -0.940509,-1.44849 -7.414479,-32.90837 -0.793571,-3.8563 -1.373807,-7.05475 -1.636046,-7.12611 -0.406382,-0.11059 -0.693066,0.86679 -2.111798,5.04789 -1.506533,4.43986 -2.752429,8.28172 -4.247904,12.78491 -1.360623,4.13499 -2.649911,7.88167 -2.865089,8.32596 -0.581887,1.20147 -1.844669,1.92825 -3.53296,1.92777 -2.08516,-5.3e-4 -3.001732,-0.65631 -5.483645,-3.63021 C 9.2493897,96.35121 3.0006697,81.82905 1.4590747,66.25337 0.88004465,60.40308 1.0471897,57.00973 2.3061827,49.05545 5.1937557,30.81186 13.509271,14.48694 24.491154,5.5021704 c 2.319063,-1.89733 4.006321,-3.08368 5.409005,-3.8032 0.905898,-0.46469 0.91436,-0.46354 1.486238,0.20131 0.492017,0.572 6.879511,9.3173296 8.450591,11.5699696 0.291041,0.4173 1.476396,2.04625 2.634122,3.61988 2.05784,2.79711 2.304609,2.86272 2.31606,4.38275 0.01058,1.40416 -0.243554,1.72558 -0.919136,2.23297 -0.628034,0.47169 -1.135991,0.47958 -3.078687,0.48383 -2.670442,0.006 -2.71032,0.025 -5.890307,2.82715 -7.871981,6.93668 -12.341273,16.78994 -13.056674,28.78549 -0.406085,6.80903 1.228659,17.15244 3.905554,24.71138 l 0.365173,1.03117 3.258507,-9.63013 c 6.325677,-18.69478 7.42791,-21.80024 8.149267,-22.95992 1.474383,-2.37026 3.030027,-2.7613 3.877805,-0.97474 0.238742,0.50311 0.724398,2.37963 1.079241,4.17006 0.834504,4.21064 3.162768,16.2767 5.018786,26.00948 1.440466,7.55366 2.077156,9.69273 2.989194,10.04272 0.941051,0.36111 1.018637,0.21131 6.023776,-11.63022 1.41469,-3.34698 3.225673,-7.5737 4.02441,-9.39271 0.798735,-1.81901 1.566392,-4.02167 1.949604,-4.8948 0.591354,-1.34736 0.763595,-1.96771 0.765752,-4.10104 L 63.152385,55.67003 58.734565,45.2478 54.084119,34.82557 52.466075,34.32886 c -3.201169,-0.98267 -3.626365,-3.25046 -1.06999,-5.70623 1.133353,-1.08875 13.73298,-6.42239 15.171573,-6.42239 1.20686,0 2.059943,0.8829 2.494695,2.58188 0.632182,2.47053 3.850966,11.6752 4.019272,11.49382 0.139571,-0.15042 2.326209,-6.10106 4.371962,-11.89772 0.72393,-2.05124 1.40421,-2.32061 3.31367,-1.31208 0.62617,0.33072 3.75241,1.67017 6.94721,2.97656 5.39931,2.20784 5.9168,2.47873 7.34218,3.84344 1.20707,1.15568 1.53347,1.63864 1.53347,2.26898 0,1.31515 -1.51408,2.28543 -3.96875,2.54333 -0.71121,0.0747 -0.99307,0.5504 -3.49023,5.89033 -2.93354,6.2731 -6.03012,12.80244 -6.6808,14.08691 -1.0324,2.03799 -1.35517,4.21067 -0.86242,5.80515 0.75266,2.43552 11.04491,27.99009 11.4271,28.37227 0.33114,0.33115 0.58326,0.35287 1.20716,0.0984 0.39598,-0.16149 0.76653,-0.62345 0.81975,-0.9435 0.0503,-0.30231 1.15393,-4.79929 2.24294,-10.06464 5.759833,-27.84877 5.823663,-28.14045 6.403703,-29.26259 0.86606,-1.67545 2.63835,-1.3859 3.66465,0.59874 0.35991,0.696 4.19906,11.43937 9.20934,25.77122 1.13191,3.23783 2.14753,5.88697 2.25693,5.88697 0.46107,0 2.45739,-6.33649 3.54268,-11.24479 0.99768,-4.51209 1.31893,-7.56268 1.29562,-12.30312 -0.026,-5.28682 -0.64929,-9.19375 -2.21266,-13.86966 -2.31315,-6.91841 -6.75096,-13.37993 -12.39783,-18.05141 l -1.69804,-1.40473 -0.84674,0.52332 c -1.20065,0.74204 -2.64169,0.68756 -3.39796,-0.12846 -0.5578,-0.60188 -1.22278,-2.26168 -1.22278,-3.0521 0,-0.31023 1.91728,-2.77291 4.63492,-5.95342 2.21297,-2.58988 7.94917,-9.4932096 8.93702,-10.7554096 0.55233,-0.70573 1.12085,-1.28314 1.26338,-1.28314 0.14253,0 1.05984,0.40583 2.03848,0.90184 10.74385,5.44544 19.59065,19.2491896 23.84024,37.1981596 0.57584,2.43218 1.12136,5.55592 1.66342,9.525 0.46407,3.39798 0.46326,15.22265 -0.001,18.52084 -1.87815,13.33518 -6.32416,24.00967 -13.99467,33.59996 -1.79969,2.25012 -5.17881,5.80274 -6.43257,6.76285 -0.37011,0.28342 -1.06662,1.08985 -1.54781,1.79206 -2.03729,2.97307 -4.78872,3.06122 -6.84733,0.2194 -0.8005,-1.10507 -0.88743,-1.38178 -5.07715,-16.16191 -1.4615,-5.15576 -2.77617,-9.68681 -3.06477,-10.05107 l -0.46038,-0.4596 -0.48275,0.32146 c -0.45726,0.30449 -0.89172,2.76306 -1.49928,5.43848 -2.85534,12.57372 -5.212523,23.00506 -6.167603,27.29383 -1.10845,4.97742 -1.94422,7.2707 -3.08347,8.46068 -0.61415,0.6415 -4.12496,0.61957 -4.81394,0.0398 z m 4.29269,-0.61689 c 1.0886,-1.29372 1.78081,-3.02515 2.46245,-6.15933 0.3573,-1.64287 0.76461,-3.46329 0.90512,-4.04538 0.28081,-1.16328 2.422433,-10.63378 4.367723,-19.31458 2.59965,-11.60086 2.74407,-12.03854 3.97232,-12.03854 0.44809,0 0.81308,0.25294 1.1395,0.78971 0.52672,0.86611 0.69344,1.41759 4.56044,15.08529 1.46942,5.19356 2.94573,9.88677 3.30224,10.49783 0.87662,1.50256 1.83071,2.20217 3.00319,2.20217 1.1919,0 1.86661,-0.45704 2.83948,-1.92344 0.41557,-0.62638 1.46996,-1.77748 2.34308,-2.55801 8.65773,-7.73949 15.78446,-20.49905 18.55565,-33.22168 1.76206,-8.08965 1.92254,-20.76415 0.36517,-28.83958 -2.33751,-12.12065 -5.67582,-20.87777 -10.99399,-28.83959 -3.55894,-5.32809 -7.40061,-9.1918796 -11.73857,-11.8061696 -3.47683,-2.09533 -2.41596,-2.78725 -10.38087,6.7706296 -3.83573,4.60287 -7.01666,8.49081 -7.06872,8.63986 -0.19759,0.56559 0.78351,2.54093 1.40197,2.82272 0.52045,0.23714 0.86663,0.16719 1.95943,-0.39589 l 1.3273,-0.68392 1.80403,1.40727 c 3.64976,2.84707 6.90082,6.64387 9.55382,11.15757 1.76772,3.00751 2.29088,4.18546 3.51633,7.91736 1.72676,5.25857 2.1883,8.84197 2.00643,15.57787 -0.13537,5.01354 -0.48525,7.75494 -1.58712,12.43542 -0.6984,2.96666 -3.13464,10.35584 -3.59477,10.90304 -0.48033,0.57123 -0.58307,0.31805 -5.06874,-12.49054 -6.33969,-18.10263 -7.12729,-20.20791 -7.9187,-21.16667 -0.76114,-0.92211 -0.76652,-0.9238 -1.26566,-0.39688 -0.76577,0.80839 -1.24912,2.43553 -2.43647,8.20208 -1.08208,5.25529 -2.988693,14.47579 -4.513633,21.82813 -0.43764,2.11005 -1.04693,5.08662 -1.35398,6.61459 -0.59987,2.98515 -1.33148,4.36889 -2.45963,4.65204 -1.39971,0.3513 -1.77878,-0.0943 -3.28227,-3.85829 -0.43595,-1.09141 -2.65055,-6.68735 -4.92134,-12.43542 -2.27079,-5.74807 -4.33212,-10.86776 -4.58073,-11.37709 -0.3296,-0.67524 -0.58495,-1.57355 -0.58495,-3.40635 0,-2.5044 0.13811,-2.55736 1.55959,-5.45719 0.78467,-1.60073 2.34681,-4.87495 3.47143,-7.27604 1.12462,-2.40109 2.60984,-5.55625 3.3005,-7.01146 0.69065,-1.45521 1.4656,-3.12816 1.72212,-3.71766 0.44497,-1.0226 0.5422,-1.08594 2.11649,-1.37871 3.21604,-0.59808 3.66805,-1.54993 1.65498,-3.48508 -1.2726,-1.22335 -2.64102,-1.87441 -11.17864,-5.3186 -1.52797,-0.6164 -2.96609,-1.28316 -3.19584,-1.48169 -0.52127,-0.45046 -1.153,-0.46311 -1.51021,-0.0302 -0.1501,0.1819 -0.74553,1.69994 -1.32317,3.37343 -0.57763,1.67349 -1.420845,4.05474 -1.873798,5.29167 -0.452954,1.23693 -1.101159,3.01583 -1.440455,3.95312 -0.657006,1.81494 -1.046689,2.19409 -1.460244,1.42077 -0.206991,-0.38706 -2.805403,-8.10036 -4.342498,-12.89055 -0.182551,-0.5689 -0.641469,-1.26342 -1.019815,-1.54337 l -0.687906,-0.50901 -6.852719,2.83065 c -4.056925,1.6758 -7.159458,3.11506 -7.604556,3.52775 -1.089221,1.00992 -1.747705,2.4146 -1.473671,3.14364 0.214204,0.56987 1.567947,1.32479 3.278622,1.82834 0.838112,0.2467 0.917471,0.4013 5.343757,10.40949 0.804487,1.81901 2.151187,4.85511 2.992668,6.74688 1.777344,3.99572 2.018324,5.92752 1.766432,8.15397 -0.164316,1.45234 -0.768085,4.18562 -1.239443,4.81061 -0.109749,0.14552 -1.23458,2.70537 -2.499624,5.68854 -1.265045,2.98318 -2.588163,6.05229 -2.940265,6.82026 -0.352099,0.76796 -0.640183,1.46434 -0.640183,1.54751 0,0.0832 -0.171916,0.5264 -0.382034,0.98495 -0.210119,0.45856 -1.111052,2.56015 -2.002073,4.6702 -2.001478,4.73975 -2.858149,5.76153 -4.219618,5.03289 -1.01727,-0.54442 -1.586428,-2.3321 -2.923063,-9.18109 -0.733325,-3.75761 -1.503043,-7.66545 -1.710481,-8.68409 -0.207439,-1.01865 -0.62488,-3.2213 -0.927645,-4.89479 -0.302768,-1.67349 -0.66284,-3.51896 -0.800161,-4.10105 -0.137319,-0.58208 -0.684342,-3.38005 -1.215605,-6.2177 -1.226854,-6.55305 -1.255863,-7.02265 -1.871008,-7.77218 -0.412364,-0.50244 -0.675069,-0.50722 -1.063506,-0.27295 -1.11178,0.67052 -2.081075,2.81634 -4.619482,10.2266 -4.813401,14.05154 -7.953267,23.34238 -8.086662,23.92835 -0.171116,0.7517 -0.797226,0.98223 -1.099418,0.4048 -1.051467,-2.00915 -2.846078,-8.55956 -3.784777,-13.81462 -0.508243,-2.84527 -0.591399,-4.24983 -0.595254,-10.05417 -0.0044,-6.57535 0.0665,-7.39711 1.003932,-11.64167 1.820836,-8.24449 6.939516,-16.38808 13.701321,-21.79819 l 2.107435,-1.68616 1.67812,0.1347 c 3.218373,0.25834 4.572373,-0.46598 4.21464,-2.25464 -0.09063,-0.45322 -1.870834,-3.16588 -3.978626,-6.06266 -2.098035,-2.88337 -4.792316,-6.6117096 -5.987288,-8.2851996 -1.194972,-1.67349 -2.320282,-3.2213 -2.500688,-3.43959 -0.180407,-0.21828 -0.479833,-0.60842 -0.665391,-0.86697 -0.313645,-0.43703 -0.463968,-0.38696 -2.136571,0.71161 C 17.30133,10.79478 7.9056427,26.13628 4.1009897,43.5463 c -2.088126,9.55522 -2.662748,17.05791 -1.830904,23.90555 1.816195,14.95066 7.700611,28.28903 18.0733683,40.96741 2.26246,2.76535 3.54903,3.71958 5.033756,3.73346 0.970454,0.009 2.268191,-0.72199 2.760234,-1.55495 0.246422,-0.41716 2.280015,-6.27907 4.519096,-13.02646 2.239081,-6.74739 4.224234,-12.5954 4.411451,-12.99559 0.403122,-0.86168 1.420079,-0.98858 1.827138,-0.22799 0.147061,0.27479 0.449271,1.49518 0.671576,2.71198 0.222303,1.2168 0.64456,3.34346 0.938345,4.72591 0.293783,1.38245 0.702985,3.34698 0.909336,4.36562 0.206351,1.01865 0.91127,4.41193 1.566484,7.54063 0.655217,3.1287 1.725946,8.24838 2.379398,11.37708 0.653452,3.1287 1.322178,6.30041 1.486053,7.04824 0.36598,1.67009 1.662438,3.26697 3.293335,4.05648 1.095812,0.53047 1.225873,0.54063 1.973379,0.15408 1.087435,-0.56234 1.849485,-1.95856 3.617844,-6.62859 0.826545,-2.18281 1.711012,-4.50453 1.965483,-5.15937 0.673516,-1.7332 3.16152,-8.21834 5.024581,-13.09688 0.889164,-2.32833 2.017567,-5.24536 2.507562,-6.48229 0.489998,-1.23693 1.864632,-4.8088 3.054744,-7.9375 2.639311,-6.9385 2.900434,-7.40833 4.117409,-7.40833 0.754107,0 1.033415,0.1803 1.695828,1.09474 0.436163,0.6021 0.903134,1.46531 1.037709,1.91822 0.134578,0.45292 1.496072,4.51443 3.025552,9.02558 1.52947,4.51114 4.46546,13.20271 6.52441,19.31458 2.05895,6.11188 4.06177,11.69746 4.4507,12.41242 0.38894,0.71495 1.20901,1.81628 1.82238,2.44739 0.98596,1.01448 1.25164,1.14748 2.2922,1.14748 0.97678,0 1.28796,-0.1319 1.82951,-0.7755 z"
       style="display:inline;fill:#000000;stroke-width:0.264583"
       id="path1" />
  </g>
</svg>
