<?xml version="1.0" encoding="UTF-8" standalone="no"?>
<!-- Created with Inkscape (http://www.inkscape.org/) -->

<svg
   width="143.4669mm"
   height="125.88328mm"
   viewBox="0 0 143.4669 125.88328"
   version="1.1"
   id="svg1"
   xml:space="preserve"
   xmlns="http://www.w3.org/2000/svg"
   xmlns:svg="http://www.w3.org/2000/svg"><defs
     id="defs1" /><g
     id="layer1"
     transform="translate(-1.139955,-1.3726278)"><path
       style="opacity:0.754673;fill:#0a120e;fill-opacity:1;stroke-width:0"
       d="m 347.09488,474.14871 c -7.45264,-6.27097 -8.79801,-9.58762 -36.88668,-90.93412 -20.13423,-58.30996 -26.4708,-75.48964 -29.65509,-80.40065 -1.63516,-2.52184 -3.11971,-3.11231 -6.99437,-2.78195 -4.29911,0.36656 -5.3187,1.22399 -8.09499,6.80753 -1.747,3.51348 -16.67092,40.72832 -33.16427,82.69963 -16.49336,41.9713 -31.09795,78.2179 -32.45466,80.54799 -3.4662,5.95309 -7.85759,6.18305 -13.50712,0.70732 -5.86185,-5.68153 -7.02976,-10.00288 -22.97708,-85.01715 -15.00963,-70.60348 -14.66262,-69.32969 -18.88696,-69.32969 -1.8767,0 -4.14723,1.40718 -5.43039,3.36554 -1.21286,1.85105 -9.34708,23.91544 -18.07604,49.03199 -13.46606,38.74695 -16.51497,46.2484 -20.12176,49.50709 -4.009013,3.62208 -4.474594,3.72495 -8.181868,1.80784 C 80.468103,413.85355 50.652826,371.86938 35.89567,340.22274 18.608362,303.15018 10.20144,266.98481 10.332445,230.25339 10.637162,144.81614 50.333239,57.526815 107.66179,16.231932 c 3.3662,-2.424738 6.55408,-4.408614 7.08418,-4.408614 0.97656,0 31.84744,42.730552 43.62832,60.389022 4.71142,7.062009 6.0296,10.084945 4.9597,11.374078 -0.80143,0.965676 -5.64352,2.193073 -10.76018,2.727551 -5.11666,0.534478 -10.88368,1.775361 -12.81561,2.757519 -4.67706,2.37774 -24.57803,23.213372 -32.71434,34.250772 -8.397915,11.39231 -15.745274,26.18764 -21.64935,43.59517 l -4.717754,13.90978 0.09271,41.03387 0.09271,41.03386 5.169102,19.46127 c 5.787614,21.78991 8.801899,29.01154 12.38574,29.67373 3.150392,0.58211 4.070062,-1.62198 22.533032,-54.00342 22.39269,-63.53046 26.52495,-73.72186 29.89171,-73.72186 1.46875,0 2.91581,6.20633 13.29708,57.03012 12.77378,62.53685 18.88106,89.53072 21.00652,92.84782 1.29699,2.02412 3.38253,3.1297 5.9038,3.1297 7.57489,0 9.16633,-2.84038 31.29333,-55.85162 18.19605,-43.59357 20.38328,-50.13392 20.38328,-60.9508 0,-11.9006 -2.78581,-20.41318 -18.7281,-57.22732 l -14.68965,-33.92156 -7.63324,-3.99571 c -4.1983,-2.19765 -7.63326,-4.74878 -7.63326,-5.66919 0,-4.23227 12.34716,-12.0464 34.80288,-22.025655 16.9497,-7.532392 22.77044,-9.058396 24.41323,-6.400322 0.62282,1.00775 5.29572,13.120157 10.38421,26.916467 6.4944,17.60812 9.95014,25.22053 11.59493,25.54161 2.69811,0.5267 7.78283,-9.89348 17.68958,-36.2514 3.37372,-8.976155 6.68782,-16.330954 7.36466,-16.343995 2.8963,-0.0558 47.35072,20.181615 52.45671,23.880365 7.20822,5.22161 6.65071,7.92841 -2.22112,10.78391 -6.92593,2.22919 -6.985,2.2992 -14.185,16.811 -13.42254,27.05352 -29.59068,63.66237 -31.71042,71.80064 -1.89864,7.28936 -1.88803,8.84406 0.10771,15.76767 1.21773,4.22451 3.06658,9.55876 4.10857,11.85388 1.042,2.29511 4.98346,12.62313 8.75881,22.95114 8.34256,22.82225 22.512,58.44582 26.91361,67.6639 3.00172,6.28635 3.61793,6.78228 8.90896,7.17007 3.6756,0.26939 6.27036,-0.2897 7.34304,-1.58221 2.32308,-2.79913 6.72387,-20.82345 18.22796,-74.65631 10.48713,-49.07396 16.14379,-72.91412 18.13904,-76.44749 1.68954,-2.99195 4.85301,4.57418 24.99282,59.77561 22.09162,60.55119 24.78335,67.01901 27.6616,66.46689 4.0105,-0.76929 16.8853,-42.5692 19.61757,-63.69122 2.0525,-15.86712 1.72032,-56.15358 -0.55139,-66.86997 -4.57924,-21.60183 -15.87368,-47.06557 -27.67194,-62.38745 -8.86736,-11.51565 -25.93318,-29.218259 -30.38808,-31.521977 -2.81783,-1.457157 -5.98889,-1.788882 -10.88799,-1.138995 -5.83081,0.773486 -7.05896,0.53456 -7.85012,-1.527169 -1.44324,-3.761018 2.26465,-9.359561 21.18481,-31.986926 21.54666,-25.7685 28.23016,-32.687996 31.57313,-32.687996 7.9069,0 37.62903,27.040038 50.72681,46.149281 18.43015,26.889001 35.91976,72.939502 42.96121,113.117762 2.87147,16.38453 1.89332,86.56777 -1.4055,100.84595 -5.64714,24.44228 -18.62602,57.22 -30.4267,76.8415 -9.02917,15.01325 -27.11694,37.91798 -42.78376,54.17752 -19.02184,19.7415 -20.6225,18.54746 -33.92205,-25.30466 -14.31865,-47.21242 -19.00166,-61.58643 -21.18597,-65.02824 -2.18432,-3.44184 -7.65742,-4.18875 -10.00105,-1.36484 -1.62425,1.95709 -7.51522,25.1388 -22.5276,88.64874 -11.12895,47.08115 -15.29433,61.53191 -18.87772,65.4915 -3.21111,3.54825 -5.10985,3.36617 -10.28207,-0.98597 z"
       id="path5"
       transform="scale(0.26458333)" /></g></svg>
