<?xml version="1.0" encoding="UTF-8" standalone="no"?>
<!-- Created with Inkscape (http://www.inkscape.org/) -->

<svg
   width="143.4669mm"
   height="125.88328mm"
   viewBox="0 0 143.4669 125.88328"
   version="1.1"
   id="svg1"
   xml:space="preserve"
   xmlns="http://www.w3.org/2000/svg"
   xmlns:svg="http://www.w3.org/2000/svg"><defs
     id="defs1" /><g
     id="layer1"
     transform="translate(-1.139955,-1.3726278)"><path
       style="opacity:0.754673;fill:#ffffff;fill-opacity:1;stroke-width:0"
       d="m 343.09747,472.85393 c -6.53192,-7.42066 -6.14075,-6.39153 -37.06234,-97.50403 -12.5026,-36.83969 -23.78067,-68.58175 -25.0624,-70.53791 -4.54238,-6.93256 -10.453,-6.23088 -14.51029,1.72258 -1.41536,2.77455 -15.76001,39.29017 -31.87698,81.14583 -16.11698,41.85565 -30.58284,78.60873 -32.14637,81.67347 -3.43059,6.72453 -6.95795,8.92576 -11.52228,7.1904 -3.73369,-1.41955 -11.53435,-9.77666 -12.69891,-13.60476 -0.42256,-1.38909 -7.39269,-34.39966 -15.48914,-73.35683 -8.09647,-38.95716 -15.04121,-71.34957 -15.43277,-71.98314 -1.55454,-2.5153 -6.12741,-0.97699 -7.94672,2.67327 -1.04858,2.10385 -9.01926,25.03914 -17.71263,50.96732 -14.60478,43.55909 -16.1277,47.34094 -20.03713,49.75786 -7.757571,4.79595 -13.011724,1.6097 -27.899086,-16.91872 C 38.527218,360.30361 16.706653,309.99476 9.5955243,256.2809 5.981675,228.98371 8.9767817,194.54681 18.275143,156.48509 28.426669,114.93104 49.699103,72.802956 75.629028,42.901048 84.885424,32.226745 102.5145,16.869259 111.65744,11.515079 l 4.08926,-2.3947064 22.60741,31.6052564 c 12.43407,17.382891 23.94749,33.982602 25.58536,36.888249 l 2.97796,5.282993 -3.38122,2.794023 c -2.72557,2.252228 -5.04473,2.719316 -11.95985,2.408763 -8.26375,-0.371119 -8.82888,-0.173758 -15.39699,5.377153 -30.08953,25.42959 -47.844147,55.80763 -54.304288,92.91431 -1.695647,9.73971 -2.02283,18.849 -1.473832,41.03387 0.756008,30.55011 3.12073,45.25834 11.511355,71.59901 3.999191,12.55465 6.217095,15.91449 8.528815,12.92009 0.74555,-0.96573 9.6594,-26.16755 19.80856,-56.00404 24.18521,-71.09971 28.63512,-80.63796 33.43562,-71.66814 0.80923,1.51207 7.08779,31.71369 13.95237,67.11472 13.40313,69.12091 15.25583,77.30586 18.68228,82.53527 3.66117,5.58766 9.263,3.92396 13.5382,-4.02071 6.94726,-12.91017 39.45423,-91.16203 41.24445,-99.28499 3.3438,-15.17219 1.60712,-22.0514 -15.00251,-59.42688 -19.3632,-43.57165 -18.26072,-41.65727 -25.60529,-44.46218 -8.92392,-3.40807 -10.12728,-5.31299 -6.88463,-10.89828 3.23791,-5.57712 10.31806,-9.52048 37.07897,-20.651495 20.12468,-8.370724 20.71522,-8.523359 23.14123,-5.981353 1.36927,1.434714 6.43857,14.367278 11.26511,28.739028 6.73957,20.06804 9.27719,26.03459 10.93774,25.71728 1.42606,-0.2725 5.47718,-9.49638 11.89904,-27.09251 5.35527,-14.67364 10.11966,-27.046524 10.58756,-27.495306 0.46788,-0.448782 3.91055,0.703381 7.65038,2.560363 3.73981,1.85698 13.99799,6.299034 22.79593,9.871223 19.17408,7.78519 27.06428,12.20481 30.12312,16.87319 2.91193,4.44417 1.42024,6.10013 -8.02195,8.90526 l -7.02313,2.08646 -19.71009,41.72936 c -19.19465,40.63812 -19.70795,41.9658 -19.62871,50.77072 0.0748,8.30741 1.74845,13.21925 20.61771,60.50756 11.29499,28.30642 21.46844,52.91137 22.60766,54.67766 3.08487,4.78288 9.99624,3.74485 13.33986,-2.00355 1.46287,-2.51497 7.24388,-27.20626 13.67824,-58.4211 14.47055,-70.20067 17.8631,-85.22246 20.32151,-89.98121 4.06681,-7.87217 5.87719,-3.92132 31.75467,69.29961 9.73358,27.54138 18.6454,51.91577 19.80405,54.16532 2.03195,3.94512 2.17657,3.99443 4.08019,1.39106 3.0751,-4.20543 12.60515,-35.3429 15.63579,-51.08662 5.43588,-28.23874 5.20893,-62.74479 -0.55833,-84.88678 -3.92967,-15.08701 -11.33837,-32.68614 -18.89945,-44.89506 -7.3362,-11.84579 -29.6091,-36.378655 -37.68614,-41.510042 -3.40787,-2.165033 -4.07162,-2.180589 -7.92905,-0.18583 -6.0234,3.114817 -8.16653,2.724195 -10.57169,-1.926863 -1.1672,-2.257123 -2.12219,-4.425636 -2.12219,-4.81892 0,-1.187634 40.19386,-49.702945 47.05834,-56.800957 3.51436,-3.633931 7.3522,-6.609823 8.52852,-6.613094 4.19271,-0.01166 25.13569,15.662605 35.14776,26.305486 28.36336,30.150431 47.96298,73.06654 59.61024,130.52493 5.72253,28.23045 5.00644,80.72301 -1.50841,110.573 -6.08604,27.88519 -19.87699,59.84798 -36.74934,85.17253 -9.15652,13.74348 -42.99576,52.01499 -49.03783,55.46083 -2.70614,1.54333 -8.87816,-1.15159 -11.80332,-5.15374 -2.58887,-3.54207 -8.146,-20.96339 -20.66052,-64.76979 -9.77968,-34.23321 -11.22171,-37.65593 -15.86485,-37.65593 -2.5209,0 -3.79325,1.25602 -5.43905,5.36926 -1.18159,2.9531 -8.79902,34.65684 -16.92761,70.45277 -8.12858,35.79593 -15.95951,68.18967 -17.40204,71.98613 -5.41914,14.26202 -11.65205,16.01901 -20.63292,5.81619 z"
       id="path2"
       transform="scale(0.26458333)" /></g></svg>
